<html>
<head>
<meta charset="UTF-8">
<meta name="viewport" content="width=device-width, initial-scale=1.0"/>

<style>
.comment
{
    padding-left: 20px;
    margin-top: 4px;
    margin-right: 4px;
    margin-bottom: 4px;
    border: 2px #000 solid;
}
.submission
{
    border: 4px #00f solid;
    padding-left: 20px;
}
.hidden
{
    display: none;
}
</style>
</head>
<body><div class="submission" id="t3_67wa4t">
    <p class="userinfo">
        <a href="https://www.reddit.com/u/TheMrMcGibblets">TheMrMcGibblets</a>
        <span class="score"> | 34 points</span>
        <span class="timestamp"> | Apr 27 2017 15:20:02</span>
    </p>
    <strong>[TV] Fargo S03E02 1080p WEB-DL DD5.1 H264-RARBG [1.81GB]</strong>
    <p><p>Add mega</p>
<p>.nz/#!96RkFJDY</p>
<p>!pxgIZUSpdrrhzXWJ4I6e99HA4RwxXJ6xLtQbGgGZ7WE</p>
<pre><code>Video
ID                                       : 1
Format                                   : AVC
Format/Info                              : Advanced Video Codec
Format profile                           : High@L4
Format settings, CABAC                   : Yes
Format settings, ReFrames                : 4 frames
Codec ID                                 : V_MPEG4/ISO/AVC
Duration                                 : 51mn 40s
Bit rate                                 : 4 537 Kbps
Width                                    : 1 920 pixels
Height                                   : 952 pixels
Display aspect ratio                     : 2.017
Frame rate mode                          : Constant
Frame rate                               : 23.976 (24000/1001) fps
Color space                              : YUV
Chroma subsampling                       : 4:2:0
Bit depth                                : 8 bits
Scan type                                : Progressive
Bits/(Pixel*Frame)                       : 0.104
Stream size                              : 1.64 GiB (90%)
Title                                    : Fargo.S03E02.1080p.WEB-DL.DD5.1.H264-RARBG
Language                                 : English
Default                                  : Yes
Forced                                   : No
Color range                              : Limited
Color primaries                          : BT.709
Transfer characteristics                 : BT.709
Matrix coefficients                      : BT.709

Audio
ID                                       : 2
Format                                   : AC-3
Format/Info                              : Audio Coding 3
Mode extension                           : CM (complete main)
Format settings, Endianness              : Big
Codec ID                                 : A_AC3
Duration                                 : 51mn 40s
Bit rate mode                            : Constant
Bit rate                                 : 384 Kbps
Channel(s)                               : 6 channels
Channel positions                        : Front: L C R, Side: L R, LFE
Sampling rate                            : 48.0 KHz
Frame rate                               : 31.250 fps (1536 spf)
Compression mode                         : Lossy
Stream size                              : 142 MiB (8%)
Title                                    : Fargo.S03E02.1080p.WEB-DL.DD5.1.H264-RARBG
Language                                 : English
Default                                  : Yes
Forced                                   : No

Text #1
ID                                       : 3
Format                                   : UTF-8
Codec ID                                 : S_TEXT/UTF8
Codec ID/Info                            : UTF-8 Plain Text
Language                                 : English
Default                                  : Yes
Forced                                   : No

Text #2
ID                                       : 4
Format                                   : UTF-8
Codec ID                                 : S_TEXT/UTF8
Codec ID/Info                            : UTF-8 Plain Text
Title                                    : SDH
Language                                 : English
Default                                  : No
Forced                                   : No
</code></pre></p>
    <p class="toolbar">
        <a href="https://www.reddit.com/r/megalinks/comments/67wa4t">permalink</a>
    </p>
</div>
<div class="comment" id="t1_dgtowp2">
    <p class="userinfo">
        <a
        class="toggle_hide_button"
        href="javascript:void(0)"
        onclick="toggle_collapse(this.parentElement.parentElement)">[-]
        </a>
        <a href="https://www.reddit.com/u/SubZorro">SubZorro</a>
        <span class="score"> | 1 points</span>
        <span class="timestamp"> | Apr 27 2017 15:24:08</span>
    </p>
    <div class="collapsible">
        <h5>Subtitles for this episode:</h5>
<hr>
<blockquote>
<ul>
<li>
<p><strong>Fargo.S03E02.WEB-DL.x264-RARBG</strong> - <code>1 CD</code> - <a href="http://dl.opensubtitles.org/en/download/vrf-9463d209/sub/6961901">Download Subtitle</a></p>
</li>
<li>
<p><strong>Fargo.S03E02.720p.HDTV.x264-FLEET</strong> - <code>1 CD</code> - <a href="http://dl.opensubtitles.org/en/download/vrf-45733ca2/sub/6961760">Download Subtitle</a></p>
</li>
<li>
<p><strong>Fargo.S03E02.1080p.WEB-DL.DD5.1.H264-RARBG</strong> - <code>1 CD</code> - <a href="http://dl.opensubtitles.org/en/download/vrf-2e277c01/sub/6961914">Download Subtitle</a></p>
</li>
<li>
<p><strong>Fargo.S03E02.720p.WEB-DL.DD5.1.H264-RARBG</strong> - <code>1 CD</code> - <a href="http://dl.opensubtitles.org/en/download/vrf-e8601762/sub/6961905">Download Subtitle</a></p>
</li>
<li>
<p><strong>Fargo.s03e02.720p.HDTV.x264-FLEET</strong> - <code>1 CD</code> - <a href="http://dl.opensubtitles.org/en/download/vrf-1e9f0147/sub/6961583">Download Subtitle</a></p>
</li>
</ul>
</blockquote>
<hr>
<p>^This ^list ^of ^subtitles ^are ^taken ^from <a href="http://www.opensubtitles.org">^opensubtitles.org</a> ^| ^For ^feedback ^or ^suggestions ^contact <a href="http://www.reddit.com/message/compose/?to=indigo6alpha">^/u/indigo6alpha</a></p>
        <p class="toolbar">
            <a href="https://www.reddit.com/r/megalinks/comments/67wa4t/_/dgtowp2">permalink</a>
        </p>
        
    </div>
</div>

<div class="comment" id="t1_disjxsm">
    <p class="userinfo">
        <a
        class="toggle_hide_button"
        href="javascript:void(0)"
        onclick="toggle_collapse(this.parentElement.parentElement)">[-]
        </a>
        <a href="https://www.reddit.com/u/vis_sub">vis_sub</a>
        <span class="score"> | 1 points</span>
        <span class="timestamp"> | Jun 12 2017 12:32:53</span>
    </p>
    <div class="collapsible">
        <p>Thanks a lot</p>
        <p class="toolbar">
            <a href="https://www.reddit.com/r/megalinks/comments/67wa4t/_/disjxsm">permalink</a>
        </p>
        
    </div>
</div>
</body>

<script>
function toggle_collapse(comment_div)
{
    var button = comment_div.getElementsByClassName("toggle_hide_button")[0];
    var collapsible = comment_div.getElementsByClassName("collapsible")[0];
    if (collapsible.classList.contains("hidden"))
    {
        collapsible.classList.remove("hidden");
        button.innerText = "[-]";
    }
    else
    {
        collapsible.classList.add("hidden");
        button.innerText = "[+]";
    }
}
</script>
</html>
